<?xml version="1.0" encoding="UTF-8" standalone="no"?>
<!-- Created with Inkscape (http://www.inkscape.org/) -->

<svg
   width="300"
   height="300"
   viewBox="0 0 300 300"
   version="1.1"
   id="svg1"
   xml:space="preserve"
   inkscape:version="1.3.2 (091e20e, 2023-11-25, custom)"
   sodipodi:docname="AMlogo.svg"
   inkscape:export-filename="AMlogo_Light.svg"
   inkscape:export-xdpi="96"
   inkscape:export-ydpi="96"
   xmlns:inkscape="http://www.inkscape.org/namespaces/inkscape"
   xmlns:sodipodi="http://sodipodi.sourceforge.net/DTD/sodipodi-0.dtd"
   xmlns="http://www.w3.org/2000/svg"
   xmlns:svg="http://www.w3.org/2000/svg"><sodipodi:namedview
     id="namedview1"
     pagecolor="#505050"
     bordercolor="#eeeeee"
     borderopacity="1"
     inkscape:showpageshadow="0"
     inkscape:pageopacity="0"
     inkscape:pagecheckerboard="0"
     inkscape:deskcolor="#505050"
     inkscape:document-units="px"
     showguides="true"
     inkscape:zoom="1"
     inkscape:cx="166.5"
     inkscape:cy="255.5"
     inkscape:window-width="1920"
     inkscape:window-height="991"
     inkscape:window-x="-9"
     inkscape:window-y="-9"
     inkscape:window-maximized="1"
     inkscape:current-layer="svg1"><sodipodi:guide
       position="135.75839,47.61187"
       orientation="0,-1"
       id="guide3"
       inkscape:locked="false" /><sodipodi:guide
       position="92.709846,262.58893"
       orientation="0,-1"
       id="guide4"
       inkscape:locked="false" /><sodipodi:guide
       position="265.00163,47.61187"
       orientation="1,0"
       id="guide5"
       inkscape:locked="false" /><sodipodi:guide
       position="35.202115,47.61187"
       orientation="1,0"
       id="guide6"
       inkscape:locked="false" /></sodipodi:namedview><defs
     id="defs1"><inkscape:path-effect
       effect="bend_path"
       id="path-effect224"
       is_visible="true"
       lpeversion="1"
       bendpath="m 50,193.74726 c 0,0 -52,-24.77343 -18,-50.74726 34.000001,-25.97382 84,12.11238 118,21 34,8.88762 47,-21.66518 73,-50.33259 26,-28.667409 77,-48.332588 77,0 C 300,162 240,165 240,165"
       prop_scale="0.9143798"
       scale_y_rel="false"
       vertical="false"
       hide_knot="false" /></defs><g
     id="g226"
     transform="matrix(1.1296276,0,0,1.1296276,-26.444482,-25.006895)"
     inkscape:export-filename="AMlogo_BW.png"
     inkscape:export-xdpi="96"
     inkscape:export-ydpi="96"
     style="fill:#000000"><path
       id="path2-2"
       style="display:inline;fill:#000000;fill-opacity:1;stroke:none;stroke-opacity:1"
       d="M 120.2793,109.86328 109.875,135.92773 93.34375,177.3457 c 4.004973,1.72883 7.95973,3.66363 11.87305,5.73828 l 11.05468,-29.99023 16.61329,44.58984 c 4.34483,1.86773 8.79448,3.56259 13.39062,3.65821 2.84842,0.10838 5.71251,-0.47943 8.39453,-1.74219 z M 89.121094,187.91992 69.306641,237.5625 c -2.403888,5.07698 -7.566217,8.59375 -13.556641,8.59375 h 16.033203 3.220703 17.714844 c -4.142106,0 -7.5,-3.35786 -7.5,-7.5 0,-0.80416 0.128981,-1.57848 0.363281,-2.30469 L 101.0957,194.26562 c -3.952501,-2.28587 -7.937485,-4.44038 -11.974606,-6.3457 z m 70.126956,23.62696 c -0.36274,0.19894 -0.71951,0.41479 -1.08789,0.59765 -5.93136,2.75437 -12.42465,3.39979 -18.59961,1.82813 -0.22942,-0.0617 -0.45486,-0.14224 -0.6836,-0.20704 l 5.0293,13.49805 c -3.3e-4,0.19399 0.0224,0.40441 0.0742,0.63867 0.23156,1.04732 0.3535,2.13693 0.35351,3.25391 0,8.28426 -6.71576,15 -15,15 h 29.83594 5.13281 13.38282 c -3.26796,0 -6.04843,-2.09146 -7.07617,-5.00781 -0.009,-0.0244 -0.0224,-0.0477 -0.041,-0.0703 l -0.002,-0.002 z" /><path
       id="path40-3-2"
       style="display:inline;fill:#000000;fill-opacity:1;stroke:none;stroke-width:1.09263;stroke-dasharray:none;stroke-opacity:1"
       d="m 177.5293,115.03516 c -0.31844,0.59114 -0.63665,1.18231 -0.95508,1.77343 -0.96717,1.72244 -1.82906,3.50427 -2.52149,5.35547 -0.74346,1.96152 -1.30643,3.98985 -1.70703,6.04883 0.0717,-0.60951 0.15082,-1.2189 0.25196,-1.82422 0.15494,-0.3447 -0.0682,-0.59221 -0.2793,-0.84375 -1.77285,-2.45509 -3.83706,-4.70106 -6.15039,-6.65625 -0.5719,-0.50083 -1.14484,-1.00118 -1.7168,-1.50195 -0.33052,2.42262 -0.76019,4.84276 -0.77148,7.29492 -0.0692,2.31989 0.11753,4.64446 0.49414,6.93359 0.35879,2.14796 0.91922,4.26061 1.64258,6.31446 0.21364,0.58327 0.44827,1.15774 0.68945,1.73047 -0.39871,-0.25698 -0.79685,-0.51498 -1.20313,-0.75977 -1.41961,-2.53254 -2.49639,-5.24886 -3.25781,-8.04883 -0.003,-0.37791 -0.31051,-0.51007 -0.60742,-0.65039 -2.63653,-1.48969 -5.44853,-2.66687 -8.36719,-3.47656 -0.72886,-0.21603 -1.45862,-0.43248 -2.1875,-0.64844 0.71202,2.3391 1.33328,4.71667 2.34766,6.94922 0.89005,2.0978 2.00793,4.09682 3.27734,5.98828 -0.36853,-0.46792 -0.73385,-0.93924 -1.08008,-1.42383 -0.134,-0.35146 -0.46545,-0.36882 -0.79101,-0.39843 -2.97617,-0.48924 -6.01059,-0.63104 -9.01758,-0.38672 -0.77744,0.05 -1.55653,0.10023 -2.33398,0.15039 1.46863,1.93948 2.86214,3.94924 4.57422,5.6875 1.34605,1.434 2.82219,2.74681 4.38671,3.9375 1.70929,1.3047 3.53231,2.46132 5.44727,3.43945 0.90133,0.47393 1.82971,0.89388 2.77344,1.27539 -0.44238,0.0963 -0.88487,0.19143 -1.32422,0.30078 -2.80167,-0.7883 -5.4903,-1.94892 -8.01563,-3.39258 -0.2686,-0.26332 -0.57856,-0.14236 -0.88672,-0.0332 -2.90833,0.79911 -5.72368,1.93953 -8.35351,3.41797 -0.68542,0.37031 -1.37128,0.74092 -2.05664,1.11133 2.1447,1.14839 4.24948,2.39202 6.53125,3.25586 1.82212,0.74036 3.71192,1.31611 5.63086,1.74414 0.2799,0.0628 0.56242,0.11357 0.84375,0.16992 -0.52453,-0.0648 -1.04899,-0.12789 -1.57032,-0.21484 -0.3387,-0.13306 -0.6111,-0.007 -0.85351,0.23828 -1.99285,1.43309 -3.84714,3.0562 -5.52539,4.84765 -0.91474,1.00773 -1.79544,2.04483 -2.69727,3.06446 2.40465,0.32759 4.80461,0.75496 7.23828,0.77148 2.30167,0.0688 4.60919,-0.10109 6.88086,-0.47461 2.14916,-0.34937 4.26385,-0.90246 6.31836,-1.62304 0.61242,-0.2181 1.21509,-0.46415 1.81446,-0.7168 -0.25182,0.39132 -0.50409,0.78298 -0.74414,1.18164 -2.51005,1.40077 -5.19637,2.47177 -7.96875,3.22656 -0.36332,0.0206 -0.55803,0.24816 -0.67579,0.57227 -1.21173,2.13469 -2.21799,4.38405 -2.99414,6.71289 -0.40996,1.29776 -0.77664,2.61088 -1.16992,3.91406 2.32152,-0.70717 4.68244,-1.32426 6.90039,-2.32617 2.00427,-0.8502 3.91859,-1.90277 5.73438,-3.10352 -0.37734,0.29167 -0.75064,0.58796 -1.13867,0.86524 -0.35148,0.134 -0.36883,0.46741 -0.39844,0.79297 -0.48947,2.97563 -0.63068,6.0072 -0.38672,9.01367 0.0496,0.77776 0.0989,1.5562 0.14844,2.33398 1.92601,-1.4577 3.92142,-2.84073 5.65039,-4.53711 1.72896,-1.61611 3.27797,-3.4189 4.65625,-5.34179 1.25068,-1.74967 2.34323,-3.61248 3.27148,-5.55274 0.27196,-0.57249 0.51643,-1.15807 0.75391,-1.74609 0.0972,0.44564 0.19257,0.89134 0.30273,1.33398 -0.22881,0.81091 -0.49681,1.60937 -0.78515,2.40039 1.07796,-1.96862 2.14855,-3.94585 3.21289,-5.92773 a 15,15 0 0 1 -1.29883,0.14453 15,15 0 0 1 -15,-15 15,15 0 0 1 15,-15 15,15 0 0 1 10.24805,4.06055 c -0.67759,-1.81971 -1.35598,-3.63914 -2.03321,-5.45899 2.30967,-5.78939 4.62077,-11.57825 6.93164,-17.36719 -0.33142,0.24925 -0.66285,0.49849 -0.99414,0.74805 -1.59841,1.16073 -3.12473,2.41997 -4.52734,3.8125 -1.53796,1.51361 -2.9342,3.16992 -4.18555,4.92774 -1.2355,1.7488 -2.31575,3.60479 -3.23828,5.53711 -0.26553,0.57016 -0.51114,1.14947 -0.74805,1.73242 -0.0996,-0.46276 -0.19807,-0.92543 -0.3125,-1.38477 0.79166,-2.79425 1.95599,-5.47647 3.40039,-7.99414 0.26503,-0.26973 0.13971,-0.57943 0.0293,-0.88867 -0.7922,-2.85515 -1.90749,-5.62282 -3.35937,-8.20703 -0.39776,-0.73365 -0.79553,-1.46756 -1.19336,-2.20117 z m 18.01758,47.65039 c -1.45923,2.30139 -2.89257,4.63424 -4.30665,6.98047 0.68444,1.59362 1.26429,3.2316 1.71875,4.90625 0.003,0.37661 0.30997,0.50957 0.60547,0.65039 2.59551,1.47702 5.36121,2.65751 8.23633,3.46875 0.0195,0.006 0.0391,0.0117 0.0586,0.0176 -1.49675,-4.01758 -2.99348,-8.03514 -4.49024,-12.05273 -0.20776,-0.40694 -0.46605,-1.78952 -0.59375,-0.67187 -0.4095,-1.09962 -0.81897,-2.19924 -1.22851,-3.29883 z m -5.21876,8.51757 c -2.08286,3.49421 -4.12076,7.04047 -6.17578,10.56836 1.38339,1.69424 2.90942,3.27174 4.57422,4.69141 0.61409,0.54012 1.22787,1.08079 1.8418,1.62109 0.33455,-2.42888 0.77201,-4.8535 0.78711,-7.3125 0.0695,-2.31074 -0.10459,-4.62746 -0.47852,-6.9082 -0.14694,-0.8941 -0.33529,-1.7798 -0.54883,-2.66016 z" /><path
       style="display:inline;fill:#000000;fill-opacity:1;stroke:none;stroke-width:1.91402;stroke-dasharray:none;stroke-opacity:1"
       d="m 108.03772,53.844441 c -0.55783,1.03553 -1.11601,2.069956 -1.67382,3.105469 -1.69424,3.017286 -3.20305,6.13996 -4.41602,9.38281 -1.30238,3.4361 -2.2885,6.98888 -2.99023,10.59571 0.1256,-1.06772 0.26422,-2.13495 0.4414,-3.19532 0.27141,-0.60383 -0.12043,-1.03788 -0.49023,-1.47851 -3.10562,-4.30074 -6.72106,-8.23515 -10.77344,-11.660159 -1.00183,-0.87733 -2.00588,-1.753635 -3.00781,-2.630859 -0.57899,4.243845 -1.3318,8.483718 -1.35156,12.779298 -0.12122,4.06386 0.2055,8.13452 0.86523,12.14453 0.62851,3.76272 1.61176,7.46466 2.87891,11.0625 0.37424,1.02174 0.78454,2.02795 1.20703,3.03125 -0.69845,-0.45019 -1.39573,-0.90321 -2.10743,-1.33203 -2.48681,-4.43638 -4.37321,-9.19477 -5.70703,-14.09961 -0.005,-0.66201 -0.54433,-0.89287 -1.06445,-1.13867 -4.61855,-2.60958 -9.54346,-4.67148 -14.65625,-6.08985 -1.27679,-0.37844 -2.55521,-0.75841 -3.83203,-1.13672 1.24729,4.09753 2.33439,8.26297 4.11133,12.17383 1.55915,3.67483 3.5185,7.17685 5.74219,10.49024 -0.64557,-0.81968 -1.28607,-1.64524 -1.89258,-2.49414 -0.23474,-0.61567 -0.81446,-0.6454 -1.38477,-0.69727 -5.21351,-0.85704 -10.52938,-1.10572 -15.79687,-0.67773 -1.3619,0.0876 -2.72795,0.1758 -4.08985,0.26367 2.57269,3.39751 5.01454,6.91789 8.01367,9.96289 2.35796,2.51202 4.94292,4.8107 7.6836,6.89648 2.99425,2.28551 6.18841,4.31197 9.54297,6.02539 1.57891,0.83021 3.20619,1.56607 4.85937,2.23438 -0.77494,0.16869 -1.55068,0.33579 -2.32031,0.52734 -4.90786,-1.38092 -9.61725,-3.41441 -14.04102,-5.94336 -0.47052,-0.46128 -1.01486,-0.24975 -1.55468,-0.0586 -5.0947,1.39984 -10.026,3.39842 -14.63282,5.98828 -1.20068,0.64869 -2.40097,1.2984 -3.60156,1.94727 3.75699,2.01168 7.44237,4.18988 11.43945,5.70312 3.19191,1.29693 6.50373,2.30489 9.86524,3.05469 0.49031,0.11001 0.98374,0.19816 1.47656,0.29687 -0.91885,-0.11351 -1.83676,-0.22268 -2.75,-0.375 -0.59333,-0.23308 -1.06949,-0.0137 -1.49414,0.41602 -3.491,2.51042 -6.73981,5.354 -9.67969,8.49219 -1.6024,1.76532 -3.14483,3.583 -4.72461,5.36914 4.21236,0.57386 8.4165,1.32262 12.67969,1.35156 4.03196,0.12052 8.07331,-0.17773 12.05274,-0.83203 3.76478,-0.61201 7.46935,-1.58145 11.06835,-2.84375 1.0728,-0.38205 2.12779,-0.81133 3.17774,-1.25391 -0.44113,0.68549 -0.88224,1.37001 -1.30274,2.06836 -4.39698,2.4538 -9.10243,4.33016 -13.95898,5.65235 -0.63645,0.0361 -0.9773,0.43419 -1.18359,1.00195 -2.12267,3.73947 -3.88647,7.68023 -5.2461,11.75976 -0.71815,2.27336 -1.3599,4.57459 -2.04883,6.85743 4.06675,-1.23877 8.20259,-2.32109 12.0879,-4.07617 3.51099,-1.48934 6.8641,-3.33213 10.04492,-5.43555 -0.66101,0.51093 -1.31441,1.02989 -1.99414,1.51562 -0.61571,0.23474 -0.64735,0.81837 -0.69922,1.38867 -0.85743,5.21261 -1.10314,10.52247 -0.67578,15.78907 0.0869,1.36244 0.17298,2.72736 0.25976,4.08984 3.37392,-2.55355 6.86971,-4.97565 9.89844,-7.94726 0.52161,-0.48757 1.02044,-0.99754 1.52344,-1.50391 3.32842,-8.33803 6.65829,-16.67549 9.98633,-25.01367 a 26.27632,26.27632 0 0 1 -20.07032,-25.49219 26.27632,26.27632 0 0 1 26.27539,-26.27539 26.27632,26.27632 0 0 1 26.27735,26.27539 26.27632,26.27632 0 0 1 -2.08789,9.92578 c 2.62067,6.838 5.24216,13.67578 7.86328,20.51367 2.20713,-1.20201 4.46478,-2.31972 6.83008,-3.16601 -0.51851,-0.87384 -1.05299,-1.73772 -1.60938,-2.58789 0.47124,0.61549 0.95256,1.22226 1.40234,1.85351 0.12821,0.33747 0.36822,0.48822 0.64649,0.57422 0.41934,-0.14315 0.84111,-0.27773 1.26758,-0.40234 0.74154,-0.0885 -0.3692,-0.59367 -0.53516,-0.90039 -3.35871,-3.05721 -5.83921,-6.89077 -8.58789,-10.46875 4.12037,-0.2028 8.24863,-0.75981 12.375,-0.36524 -0.93779,-1.95956 -1.63067,-4.01059 -2.25976,-6.08398 -2.75526,-1.88385 -5.65402,-3.55557 -8.66407,-4.99805 -1.01709,-0.47851 -2.05591,-0.91426 -3.09765,-1.33789 0.81331,-0.17589 1.62609,-0.34993 2.43359,-0.55078 2.8006,0.794 5.52628,1.82247 8.17969,3.01367 -0.17467,-0.58959 -0.34549,-1.18045 -0.53125,-1.76562 l 3.16015,0.93554 c 2.74933,0.77827 5.5003,1.60661 8.11133,2.77149 0.83699,-0.28003 1.66125,-0.59506 2.48633,-0.90821 -0.0417,-3.88822 0.6647,-7.73485 1.19922,-11.58007 -0.11996,-0.0464 -0.23496,-0.10327 -0.35547,-0.14844 -3.55541,-1.43163 -7.25647,-2.49869 -11.01367,-3.25391 0.88295,0.11246 1.76683,0.21738 2.64453,0.36524 0.60243,0.27077 1.03934,-0.12096 1.48047,-0.48828 4.29151,-3.08237 8.22124,-6.66292 11.64258,-10.69141 0.90264,-1.0259 1.80812,-2.05043 2.71093,-3.07617 -4.22306,-0.58027 -8.43961,-1.35247 -12.71484,-1.38281 -4.04807,-0.12718 -8.10556,0.16976 -12.10156,0.82421 -3.71812,0.60394 -7.38351,1.54295 -10.9375,2.79297 -1.12974,0.39402 -2.24031,0.8419 -3.3418,1.31055 0.4384,-0.68115 0.87722,-1.36256 1.29492,-2.05664 4.45803,-2.49478 9.24103,-4.39131 14.16992,-5.72461 0.66045,-0.005 0.8914,-0.54247 1.13868,-1.06055 2.61091,-4.59358 4.68433,-9.49637 6.10937,-14.58593 0.39139,-1.30921 0.78615,-2.6147 1.17774,-3.92383 -4.07923,1.23744 -8.23213,2.29976 -12.12891,4.05859 -3.64515,1.53976 -7.12492,3.45566 -10.41406,5.6543 0.76534,-0.59675 1.52788,-1.19096 2.31836,-1.75391 0.61923,-0.23527 0.65253,-0.8235 0.70312,-1.39648 0.82911,-5.12382 1.07534,-10.34404 0.65625,-15.51953 -0.096,-1.45874 -0.19094,-2.91627 -0.28711,-4.375004 -0.9395,0.707706 -1.88083,1.413386 -2.82031,2.121093 -2.80002,2.033301 -5.47266,4.238381 -7.92969,6.677731 -2.69413,2.65145 -5.13995,5.55353 -7.33203,8.63282 -2.16429,3.06347 -4.05777,6.31425 -5.67383,9.69922 -0.46514,0.99876 -0.89553,2.01397 -1.31054,3.03515 -0.17447,-0.81064 -0.34643,-1.62113 -0.54688,-2.42578 1.38679,-4.89485 3.42677,-9.59359 5.95703,-14.00391 0.46426,-0.4725 0.24419,-1.01493 0.0508,-1.55664 -1.38774,-5.00148 -3.34142,-9.850041 -5.88476,-14.37695 -0.69677,-1.285173 -1.39295,-2.570366 -2.08985,-3.855469 z"
       id="path40-3-9-88" /><path
       id="path2-0-4"
       style="display:inline;fill:#000000;fill-opacity:1;stroke:none;stroke-opacity:1"
       d="m 200.5957,109.86328 -10.40429,26.06445 -0.17774,0.44532 2.65625,7.12695 c 1.80552,-2.66792 3.69738,-5.23389 5.69531,-7.6543 1.91033,-2.43538 4.02898,-4.5509 6.20118,-6.55859 0.85841,-0.77153 1.74109,-1.50082 2.60742,-2.26172 z m 12.34375,32.21094 c -3.42745,2.87545 -6.6682,6.1409 -9.67383,9.74023 -0.36219,0.42194 -0.74699,0.91602 -1.16015,1.42383 -1.25535,1.5917 -2.44747,3.26263 -3.61524,4.96289 l 15.53516,41.69336 c 6.44683,-0.74077 12.85995,-2.55013 18.81836,-5.88672 z m 22.32813,58.25976 c -3.60181,1.94035 -7.38413,3.32108 -11.21094,4.15235 -2.62976,0.55757 -5.29298,0.8778 -7.95898,0.97265 l 8.125,21.80469 c -3.3e-4,0.194 0.0224,0.40442 0.0742,0.63867 0.23155,1.04733 0.3535,2.13693 0.35351,3.25391 0,8.28426 -6.71578,15 -15,15 h 29.83594 5.13281 13.38281 c -3.26795,0 -6.04842,-2.09146 -7.07617,-5.00781 -0.009,-0.0244 -0.0224,-0.0477 -0.041,-0.0703 l -0.002,-0.002 z" /><path
       id="path59-6"
       style="display:inline;fill:#000000;fill-opacity:1;fill-rule:evenodd;stroke-width:1.67386"
       d="m 239.94872,162.52262 c 0.0232,0.004 0.047,0.009 0.0715,0.013 0.15585,0.0272 0.31559,0.0525 0.47888,0.0767 0,0 1e-5,1e-5 1e-5,1e-5 0.61616,0.0913 1.24371,0.16821 1.88102,0.2352 2.24826,0.23633 4.5538,0.35041 6.90402,0.35693 7.04823,0.0184 14.4684,-0.91558 21.86903,-3.23362 8.41361,-2.61779 16.88129,-7.21919 23.64645,-14.58557 3.54629,-3.91032 6.45048,-8.51123 8.48231,-13.59819 2.29059,-5.7933 3.42876,-11.96333 3.56626,-18.11966 0,0 0,-1e-5 0,-1e-5 0.19636,-5.546 -0.35794,-11.50583 -2.372,-17.460871 0,-10e-7 -1e-5,-1.1e-5 -1e-5,-1.1e-5 -1.50487,-4.492775 -4.18533,-8.843316 -8.1443,-12.380437 0,-2e-6 -1e-5,-4e-6 -1e-5,-6e-6 -3.68618,-3.123557 -7.99694,-5.087132 -12.41842,-5.914578 0,3e-6 -1e-5,-2e-6 -1e-5,-2e-6 -4.79317,-0.882474 -9.44225,-0.721802 -13.71106,0.06186 -10.35174,1.883662 -19.47162,6.41761 -27.29438,11.707492 -5.20772,3.468924 -10.01777,7.346672 -14.37808,11.542995 -1.45963,0.43309 -0.33534,-1.358015 2.42271,-4.103606 2.85916,-2.846254 6.76133,-5.995478 11.08002,-8.881981 5.14292,-3.503427 9.43674,-5.568708 10.83771,-6.185995 0.81859,-0.360684 -0.14617,0.09275 -1.63045,0.847191 -1.6033,0.814933 -4.9577,2.556656 -9.21693,5.32287 -2.58249,1.645279 -5.79916,3.834066 -9.32572,6.601568 -5.19397,4.472937 -9.97616,9.398613 -14.24703,14.717073 -5.91829,7.41179 -11.20537,15.02441 -16.54959,22.52987 0,0 -1e-5,0 -1e-5,0 -4.65427,6.51027 -9.24325,12.91291 -14.62283,18.48327 -4.61589,4.74298 -9.8326,8.9378 -15.89616,11.15026 -6.46697,2.43998 -13.90573,2.42958 -21.00247,0.84519 -9.58882,-2.15935 -18.82683,-6.00004 -28.10482,-9.85422 0,0 -1e-5,-1e-5 -1e-5,-1e-5 -10.27477,-4.27191 -20.61265,-8.79737 -31.219551,-12.42408 -5.887632,-2.01387 -11.93,-3.80002 -18.062103,-4.94856 -4.236453,-0.48597 -8.591959,-0.73505 -12.996635,-0.55123 -4.795879,0.19836 -9.626558,0.94115 -14.208918,2.45745 1e-6,0 -6e-6,0 -6e-6,0 -4.675076,1.54256 -9.065995,3.89586 -12.945697,6.87251 -3.468404,2.67967 -6.590891,5.64007 -8.702241,9.186 -1.584532,2.65194 -2.542012,5.62381 -2.574204,8.57751 -0.0493,2.8412 0.727249,5.68077 1.894339,8.23781 1.30837,2.86032 3.12992,5.45804 5.039812,7.76505 4.226993,5.10408 9.281859,9.29112 13.358651,12.45062 10e-7,0 2e-6,0 3e-6,0 1.836843,1.42533 3.548838,2.68762 5.147389,3.83274 0.522946,0.37465 1.02413,0.72919 1.523578,1.07578 0.13906,0.0965 0.278279,0.19222 0.419136,0.28762 0,0 3e-6,1e-5 3e-6,1e-5 0.03696,0.025 0.07486,0.0504 0.113773,0.0761 0.01041,0.006 0.02134,0.0119 0.03278,0.0182 -0.01398,0.11538 0.578265,-0.67946 1.734847,-2.42261 -1.158922,1.74714 -1.750289,2.54081 -1.736922,2.42694 -0.01167,-0.006 -0.0228,-0.0115 -0.03342,-0.0169 -0.03983,-0.0242 -0.07854,-0.0479 -0.116178,-0.0713 -0.145254,-0.0902 -0.28782,-0.18034 -0.428079,-0.27016 0,0 -8e-6,-1e-5 -8e-6,-1e-5 -0.525457,-0.33649 -1.041861,-0.67899 -1.551734,-1.02508 0,0 -8e-6,-10e-6 -8e-6,-10e-6 -1.774376,-1.20428 -3.50205,-2.46757 -5.186739,-3.78149 -4.819887,-3.75373 -9.399757,-7.96046 -13.070426,-12.77189 -1.883913,-2.47113 -3.526775,-5.11085 -4.620811,-7.89235 -1.022321,-2.61323 -1.572609,-5.36502 -1.340225,-7.9372 0.209926,-2.75258 1.333981,-5.40419 2.924986,-7.67262 2.187106,-3.15492 5.351366,-5.65467 8.798257,-7.94355 3.848114,-2.48746 8.091593,-4.30197 12.447198,-5.29615 4.206607,-0.97911 8.622643,-1.21831 13.051206,-0.95076 9.523546,0.53474 19.00821,3.58485 28.646665,7.23009 10.047257,3.86111 19.868752,8.55235 30.273242,13.1562 9.05567,4.04666 18.70647,8.21551 29.25219,10.75133 2.70388,0.66985 5.49465,1.12102 8.32715,1.31993 5.85041,0.31409 11.85116,-0.38986 17.60075,-2.39758 7.71905,-2.89903 14.06919,-7.68492 19.30537,-13.01024 0,0 1e-5,-1e-5 1e-5,-1e-5 6.02109,-6.04939 11.04832,-12.61328 15.9493,-19.02534 5.59177,-7.2849 11.12182,-14.53528 17.10873,-21.23001 0,0 0,-1e-5 0,-1e-5 6.31149,-7.07131 13.77417,-13.15441 21.96554,-18.053908 0,10e-7 1e-5,-4e-6 1e-5,-4e-6 7.53031,-4.445326 15.4788,-8.007499 23.6081,-9.027605 0,0 10e-6,0 10e-6,0 3.32588,-0.410419 6.56568,-0.446623 9.44763,0.268609 2.24489,0.552241 4.34806,1.508675 5.96466,2.848803 0.21701,0.179896 0.42521,0.366674 0.62376,0.560273 1.94461,1.74595 3.30512,4.365499 4.24301,7.203372 1.28962,3.9484 1.49553,8.43287 1.34107,13.08981 -0.23512,4.8529 -1.14119,9.56193 -2.89471,13.74622 0,0 0,1e-5 0,1e-5 -1.49554,3.62399 -3.62452,6.96258 -6.20618,9.80732 -0.76641,0.86623 -1.58307,1.69057 -2.44358,2.47511 -2.0776,3.65209 -3.84032,6.03428 -4.55881,7.64152 -0.71485,1.5991 -0.48381,2.42717 0.65514,2.61609 2.18018,0.36164 7.97184,-1.84709 13.48313,-7.06375 3.46317,-3.28924 6.43132,-7.43948 8.57583,-12.1646 2.97901,-6.59422 3.83622,-12.96594 4.10688,-17.05792 0.17247,-2.28629 0.16852,-3.75063 0.19371,-3.89218 0.0252,-0.14154 0.11502,1.05227 0.005,3.89218 -0.0813,2.73683 -0.44031,9.70904 -3.36738,17.38477 -0.32711,0.85176 -0.69124,1.72377 -1.09651,2.61115 -1.95849,3.74211 -4.41031,7.16191 -7.24607,10.15721 -6.39041,6.70275 -14.39179,11.1408 -22.65224,13.99705 0,0 0,0 0,0 -6.87591,2.37978 -13.97949,3.74463 -21.07996,4.37642 0,0 0,0 0,0 -2.25789,0.19988 -4.51114,0.32342 -6.75033,0.35033 -0.62427,0.007 -1.24265,0.007 -1.85401,-0.005 0,0 0,0 0,0 -0.16127,-0.003 -0.31928,-0.008 -0.47389,-0.0135 -0.0242,-9.3e-4 -0.0479,-0.002 -0.0708,-0.003 z"
       sodipodi:nodetypes="ccccccsccc"
       inkscape:path-effect="#path-effect224"
       inkscape:original-d="M 906.95137,14.772336 C 852.75252,2.2692976 780.79857,2.8216564 719.20782,6.5275575 712.41808,3.1539332 785.44067,2.6394602 726.3343,3.9397087 659.49021,8.8454427 591.49694,11.893833 522.14341,11.986482 480.58196,15.14964 427.52182,13.185861 406.21067,9.7794076 471.8741,17.15389 543.02116,22.329163 615.33228,19.884981 c 56.13651,-3.030281 114.10375,-3.556638 171.6733,-1.877888 21.7932,0.635488 43.52939,1.586992 65.08772,2.838274 C 904.85081,9.2587713 757.20281,5.0258048 835.66747,7.8181499 Z"
       transform="matrix(0.75704746,0,0,1,25.674639,40)" /></g></svg>
